<?xml version="1.0" encoding="utf-8"?>
<!-- Generator: Adobe Illustrator 23.0.6, SVG Export Plug-In . SVG Version: 6.00 Build 0)  -->
<svg version="1.1" id="Ebene_1" xmlns="http://www.w3.org/2000/svg" xmlns:xlink="http://www.w3.org/1999/xlink" x="0px" y="0px"
	 viewBox="0 0 256 256" style="enable-background:new 0 0 256 256;" xml:space="preserve">
<style type="text/css">
	.st1{fill:#DE452B;}
</style>
<g>
	<g id="XMLID_1_">
		<g>
			<path class="st0" d="M253.7,90.5c0,28.8,0,57.6,0,86.5c-9.3,0-18.7,0-28,0v-2.5c1.3,0,2.7,0,4-0.1c2.1-0.1,4.3-0.2,6.3-0.8
				c7-1.9,11.7-6.1,13-13.6c1.2-7.2-1.2-12.8-7.5-16.5c-4.1-2.4-8.6-4.3-12.9-6.6c-1.5-0.8-3-1.6-4.4-2.7c-1.6-1.3-1.8-3.2-1.1-4.9
				c0.7-1.7,2.1-2.8,4.1-2.9c3.7-0.2,6.1,1.5,7.7,4.7c1.6,3.2,4.6,4.4,8.2,3.5c3.3-0.8,5.4-3.5,5.4-6.9c0.1-3.5-2-5.9-4.2-8.2
				c-7.8-8.1-21.1-7.6-28.2-3.5c-3.5,2-6.1,5-7.5,8.3l-1.3-0.6c0.3-0.8,0.5-1.7,0.5-2.7c0-4-2.8-6.7-7-6.7c-7.4,0-14.7,0-22.1,0
				c-0.9,0-1.8,0.1-2.7,0.2c-2.4,0.4-3.8,1.9-3.8,4.4c0,16.9,0,33.9,0,50.8c0,2.8,1.8,4.6,4.7,4.6c3.2,0,6.4,0.1,9.6,0.1v2.5
				c-8.9,0-17.8,0-26.8,0v-2.4c4.4,0,7.7-3.3,7.7-8c0.1-6.6,0-13.2,0-19.8c0-8.1,0-16.1,0-24.2c0-3.6-1.8-6.4-4.8-7.5
				c-3.5-1.2-6.5-0.3-9,2.7c-6,7.3-12.1,14.5-18.1,21.8c-0.3,0.4-0.5,0.9-0.9,1.5c-0.8-0.9-1.2-1.2-1.5-1.6
				c-5.8-7.2-11.6-14.3-17.4-21.5c-2.4-3-5.5-4.1-9-2.9c-3.1,1-5,3.8-5,7.5c0,14.6,0,29.2,0,43.8c0,4.9,3.1,8.2,7.6,8.3c0,0,0,0,0,0
				v2.4c-6.6,0-13.2,0-19.8,0v-2.2c4.1,0,7.5-3.4,7.5-7.7c0-14.7,0-29.3,0-44c0-3.6-2.2-6.8-5.3-7.9c-3.1-1.1-7.3-0.8-9.6,2.2
				c-5.4,6.9-11,13.8-16.4,20.7c-0.9,1.2-1.8,1.8-3.4,1.8c-6.3-0.1-12.7-0.1-19,0c-3.3,0-5.2,1.9-5.2,5.3c0,3.4,0,6.8,0,10.1
				c0,5.8-0.7,6.4-6.5,4.8c-0.2-0.1-0.4-0.2-0.6-0.2c-5.5-2.1-9.1-6.1-10.4-11.9c-1.4-6.4,0.7-11.7,5.5-15.9
				c5.2-4.5,13.4-4.8,19.4-0.8c3.7,2.4,7.9,1.7,10.3-1.9c2.6-3.8,1.3-8.2-3.2-11c-12.5-7.8-28.7-5.6-38.8,5.3
				c-5.7,6.1-8.3,13.5-8.3,20.9H5.4c0-12.9,0-25.8,0-38.8h0.5c0,1.2,0.6,2.4,1.9,3.3c2.2,1.7,4.6,1.3,6.4-1.1c1.1-1.5,2-3.1,3.3-4.5
				c0.6-0.7,1.6-1.2,2.5-1.3c1.5-0.2,3,0,4.5-0.1c1.9-0.1,2.3-1,1.2-2.5c-0.7-1-1.5-2-2.2-3c-0.3-0.4-0.5-1.1-0.4-1.5
				c0.8-1.4,1.8-2.8,2.8-4.2c0.2,0.1,0.5,0.2,0.7,0.2c0.1,0.5,0.2,1,0.2,1.5c0,4.3,0,8.5,0,12.8c0,2.7,2.1,4.6,4.6,4.6
				c2.4,0,4.3-1.9,4.4-4.6c0.1-8.7,0.1-17.5,0.1-26.2c0-2.2-1.2-4-3.3-4.8c-0.6-0.2-1.2-0.4-1.8-0.4v-2c5.9,0,11.9,0,17.8,0v2.1
				c-1.5,0-3,0-4.6,0c-3,0-4.4,1.5-4.4,4.5c0,4.4,0,8.8,0,13.2c0,4.6,0,9.2,0,13.8c0,2.9,1.5,4.3,4.4,4.3c3.6,0,7.3,0.2,10.9-0.1
				c2.3-0.2,4.7-0.7,6.7-1.8c5.7-3,8.9-9.1,8.9-15.8l2.5,0c0,4.5,0,9.1,0,13.6c0,2.5,1.7,4,4.2,4.1c1.9,0,3.8,0,5.8,0
				c1.6,0,3.2,0,4.8,0c6.7,0,12.4-4,14.8-10.3c0.9-2.4,1.3-4.9,1.3-7.4h2.4c0,4.2,0,8.5,0,12.7c0,3,1.9,5,4.6,4.9
				c2.6,0,4.4-2,4.4-4.9c0-4.3,0-8.7,0-13c0,0,0-0.1,0-0.1h2.4c0,8.3,5.7,16,14.1,18c9.8,2.3,18.9-3.4,21.6-11.9
				c0.9-2.8-0.1-5.1-2.5-5.9c-2.5-0.9-4.7,0.2-5.8,2.9c-1.8,4.4-4.8,6.5-9.5,6.4c-4.9,0-8.6-3.8-9-9c-0.3-4.6,2.9-9,7.5-9.3
				c4.8-0.3,7.4-3.2,9.7-6.7c1-1.4,0.5-2.3-1.3-2.4c-0.6,0-1.1,0-1.7,0v-2.1c17.2,0,34.4,0,51.7,0v2c-0.5,0-1,0.1-1.5,0.2
				c-1.7,0.5-3.3,2.8-3.3,4.8c0,8.7,0,17.4,0,26c0,2.8,2.2,5,4.8,4.9c2.6-0.1,4.5-2.1,4.5-4.9c0-3.9,0-7.7,0-11.6
				c0-0.6,0.1-1.1,0.2-2.1c0.5,0.7,0.7,1,0.9,1.4c3.2,5,6.5,10.1,9.7,15.1c1.1,1.8,2.8,2.4,4.8,1.9c2-0.5,3.4-2.2,3.4-4.2
				c0-4.6,0-9.2,0-13.7h2.2c0,8.2,5.3,16.2,13.8,17.9c2.2,0.4,3.9-0.1,5.2-2c1.9-2.8,3.8-5.6,5.7-8.4c0.8-1.2,1.7-1.7,3.2-1.8
				c1,0,2.2-0.5,2.8-1.2c1.3-1.4,2.3-3.1,3.3-4.7c0.3-0.5,0.5-0.9,0.5-1.3H253.7z M184.8,105.3c0.1-8.8,0.1-17.6,0-26.4
				c0-2.8-1.9-4.6-4.7-4.6c-9.5,0-19-0.1-28.5,0.1c-1.2,0-2.7,0.8-3.6,1.6c-1.5,1.5-2.7,3.3-4,5c-1.1,1.5-0.6,2.4,1.3,2.5
				c3.5,0.1,7,0,10.5,0c0.9,0,1.7,0.1,2.8,0.2c0,0.9,0,1.7,0,2.4c0,6.3,0,12.5,0,18.8c0,3.2,1.8,5.2,4.5,5.3c2.9,0,4.5-1.8,4.5-5.2
				c0-6.5,0-13.1,0-19.6c0-0.6,0.6-1.7,1-1.8c2.2-0.2,4.5-0.1,6.9-0.1c0,1.1,0,1.8,0,2.6c0,6.4,0,12.8,0,19.2c0,2.8,1.9,4.8,4.5,4.9
				C182.9,110.1,184.8,108.2,184.8,105.3z"/>
			<path class="st0" d="M253.7,72.1c0,6.2,0,12.3,0,18.4h-0.9c0-0.7-0.5-1.1-1.6-1.2c-1.8-0.2-3.7,0-5.6,0c0,0,0-0.1,0-0.1
				c-1.6,0-3.2-0.1-4.8,0c-2.4,0.2-3.3,1.2-3.3,3.6c0,2.3-0.1,4.5,0,6.8c0,1.4-0.4,2-1.9,2c-3.7,0-7.6-3.1-8.5-6.9
				c-1.1-4.3,1.1-9.3,4.9-11c3.3-1.4,6.5-1.3,9.7,0.5c2.6,1.5,4.4,1.3,5.9-0.5c2-2.4,1.2-5.6-2-7.4c-2.7-1.5-5.9-2.3-9.1-2.3v-1.9
				C242.4,72.1,248,72.1,253.7,72.1z"/>
			<path class="st1" d="M252.8,90.5c0,0.4-0.2,0.8-0.5,1.3c-1.1,1.6-2.1,3.3-3.3,4.7c-0.6,0.7-1.9,1.2-2.8,1.2
				c-1.5,0-2.4,0.6-3.2,1.8c-1.9,2.8-3.8,5.6-5.7,8.4c-1.3,1.9-2.9,2.5-5.2,2c-8.5-1.7-13.8-9.7-13.8-17.9c0-3.5,1-7.1,3.1-10.2
				c3.6-5.4,9.5-7.8,15.2-7.8c3.3,0,6.5,0.8,9.1,2.3c3.2,1.8,4.1,5,2,7.4c-1.6,1.8-3.4,2-5.9,0.5c-3.2-1.9-6.4-2-9.7-0.5
				c-3.8,1.7-6,6.7-4.9,11c0.9,3.8,4.8,6.9,8.5,6.9c1.5,0,1.9-0.6,1.9-2c-0.1-2.3,0-4.5,0-6.8c0-2.4,0.9-3.4,3.3-3.6
				c1.6-0.1,3.2,0,4.8,0c0,0,0,0.1,0,0.1c1.8,0,3.7-0.1,5.6,0C252.3,89.4,252.8,89.9,252.8,90.5z"/>
			<path class="st1" d="M241.6,143.6c6.3,3.7,8.6,9.4,7.5,16.5c-1.2,7.5-5.9,11.7-13,13.6c-2,0.5-4.2,0.7-6.3,0.8
				c-1.3,0.1-2.7,0.1-4,0.1c-2,0-4.1,0-6.1,0c-4.1,0-8.3,0.1-12.4,0c-0.8,0-2-0.3-2.3-0.9c-0.3-0.5,0.1-1.7,0.6-2.3
				c1.9-2.8,3.9-5.5,5.8-8.3c1.3-1.8,2.9-2.8,5.2-2.8c4.3,0,8.5,0,12.8,0c2.6,0,4.2-1,4.7-2.9c0.5-2-0.5-3.8-2.9-4.9
				c-3.9-1.8-8-3.4-11.9-5.3c-2.4-1.2-4.9-2.6-6.9-4.5c-5.4-5.1-6.2-12.2-3.7-18.1c1.5-3.4,4-6.3,7.5-8.3c7.1-4.1,20.4-4.5,28.2,3.5
				c2.2,2.3,4.3,4.7,4.2,8.2c0,3.4-2.2,6.1-5.4,6.9c-3.6,0.9-6.6-0.3-8.2-3.5c-1.6-3.2-4-5-7.7-4.7c-2.1,0.1-3.4,1.2-4.1,2.9
				c-0.7,1.7-0.5,3.6,1.1,4.9c1.3,1.1,2.8,1.9,4.4,2.7C233,139.2,237.5,141.1,241.6,143.6z"/>
			<path class="st0" d="M236.7,72.1V74c-5.7,0-11.6,2.4-15.2,7.8c-2.1,3.1-3.1,6.7-3.1,10.2h-2.2c0-4.5,0-9,0-13.5
				c0-2.2-2.1-4.2-4.3-4.2v-2.1C220.1,72.1,228.4,72.1,236.7,72.1z"/>
			<path class="st0" d="M231.2,152.4c2.4,1.1,3.3,2.8,2.9,4.9c-0.4,1.8-2,2.8-4.7,2.9c-4.3,0-8.5,0.1-12.8,0c-2.3,0-3.9,1-5.2,2.8
				c-1.9,2.8-4,5.5-5.8,8.3c-0.4,0.6-0.9,1.8-0.6,2.3c0.3,0.6,1.5,0.8,2.3,0.9c4.1,0.1,8.3,0,12.4,0c2,0,4.1,0,6.1,0v2.5
				c-13,0-26.1,0-39.1,0v-2.5c2.8,0,5.7,0,8.6-0.1c1.6-0.1,3.8-0.7,4.8-1.9c2.7-3.2,5-6.7,7.4-10.2c0.7-1.1,0.3-2-1.2-2.1
				c-0.8-0.1-1.6-0.1-2.5-0.1c-4.8,0-9.6,0-14.5,0c-1.3,0-1.9-0.3-1.9-1.8c0.1-2.2,0.1-4.4,0-6.6c0-1.2,0.4-1.7,1.7-1.7
				c2.5,0.1,5.1,0.1,7.6,0c3.4-0.1,6-2.6,6-6c0.1-3.6-2.3-6.4-5.7-6.5c-3.1-0.1-6.2,0-9.6,0c0-2.7,0.1-5.1,0-7.5
				c-0.1-1.8,0.7-2.2,2.3-2.2c3.7,0.1,7.4,0,11.2,0c3.1,0,5.5-1.5,6.5-3.9l1.3,0.6c-2.6,5.9-1.7,13.1,3.7,18.1
				c2,1.9,4.4,3.3,6.9,4.5C223.2,149,227.2,150.5,231.2,152.4z"/>
			<path class="st1" d="M216.1,92c0,4.6,0,9.1,0,13.7c0,2-1.4,3.7-3.4,4.2c-2,0.5-3.7-0.2-4.8-1.9c-3.2-5-6.5-10.1-9.7-15.1
				c-0.2-0.3-0.4-0.6-0.9-1.4c-0.1,1-0.2,1.5-0.2,2.1c0,3.9,0,7.7,0,11.6c0,2.8-1.9,4.8-4.5,4.9c-2.6,0.1-4.8-2.1-4.8-4.9
				c0-8.7,0-17.3,0-26c0-2,1.6-4.2,3.3-4.8c0.5-0.2,1-0.2,1.5-0.2c1.4,0,2.7,0.8,3.8,2.5c3,4.8,6,9.6,9,14.3
				c0.4,0.6,0.8,1.1,1.1,1.7c0.2,0,0.4-0.1,0.6-0.1c0-3.6,0-7.1,0-10.7c0-1.2-0.1-2.5,0.1-3.7c0.3-2.5,2.2-4,4.8-3.9
				c2.2,0.1,4.3,2,4.3,4.2C216.1,82.9,216.1,87.5,216.1,92z"/>
			<path class="st0" d="M211.8,72.1v2.1c-2.6-0.1-4.4,1.4-4.8,3.9c-0.2,1.2-0.1,2.5-0.1,3.7c0,3.5,0,7.1,0,10.7
				c-0.2,0-0.4,0.1-0.6,0.1c-0.4-0.6-0.8-1.1-1.1-1.7c-3-4.8-6-9.6-9-14.3c-1.1-1.7-2.3-2.5-3.8-2.5v-2
				C198.9,72.1,205.4,72.1,211.8,72.1z"/>
			<path class="st1" d="M207.9,121.1c0,1-0.2,1.9-0.5,2.7c-1,2.4-3.4,3.9-6.5,3.9c-3.7,0-7.4,0.1-11.2,0c-1.6,0-2.4,0.4-2.3,2.2
				c0.1,2.4,0,4.8,0,7.5c3.5,0,6.6-0.1,9.6,0c3.4,0.1,5.8,2.9,5.7,6.5c-0.1,3.4-2.6,6-6,6c-2.5,0.1-5.1,0.1-7.6,0
				c-1.2,0-1.7,0.4-1.7,1.7c0.1,2.2,0.1,4.4,0,6.6c-0.1,1.4,0.6,1.8,1.9,1.8c4.8,0,9.6,0,14.5,0c0.8,0,1.7,0,2.5,0.1
				c1.4,0.1,1.9,1,1.2,2.1c-2.4,3.5-4.6,7-7.4,10.2c-1,1.2-3.1,1.8-4.8,1.9c-2.9,0.1-5.7,0.1-8.6,0.1c-3.2,0-6.4,0-9.6-0.1
				c-2.8,0-4.7-1.8-4.7-4.6c0-16.9,0-33.9,0-50.8c0-2.5,1.3-4,3.8-4.4c0.9-0.1,1.8-0.2,2.7-0.2c7.4,0,14.7,0,22.1,0
				C205.1,114.4,207.9,117.1,207.9,121.1z"/>
			<path class="st1" d="M184.8,78.8c0.1,8.8,0.1,17.6,0,26.4c0,2.9-1.9,4.8-4.5,4.8c-2.6-0.1-4.5-2-4.5-4.9c0-6.4,0-12.8,0-19.2
				c0-0.8,0-1.5,0-2.6c-2.4,0-4.7-0.1-6.9,0.1c-0.4,0-1,1.1-1,1.8c-0.1,6.5,0,13.1,0,19.6c0,3.3-1.6,5.2-4.5,5.2
				c-2.8,0-4.5-2.1-4.5-5.3c0-6.3,0-12.5,0-18.8c0-0.8,0-1.5,0-2.4c-1.1-0.1-1.9-0.2-2.8-0.2c-3.5,0-7,0-10.5,0
				c-1.9,0-2.4-0.9-1.3-2.5c1.2-1.7,2.4-3.5,4-5c0.9-0.9,2.3-1.6,3.6-1.6c9.5-0.1,19-0.1,28.5-0.1C183,74.2,184.8,76,184.8,78.8z"/>
			<path class="st1" d="M167.6,146.8c0,6.6,0,13.2,0,19.8c0,4.7-3.3,8-7.7,8c-0.1,0-0.1,0-0.1,0c-3.9-0.1-7.2-3.3-7.2-7.3
				c0-7.2,0-14.5,0-21.7c0-0.5-0.1-1.1-0.2-2.3c-3.3,4-6.2,7.6-9.1,11.2c-3.4,4.3-3.4,4.3,0.1,8.5c1.6,2,3.4,3.8,4.8,5.9
				c0.6,0.9,1.1,2.6,0.7,3.5c-0.4,0.9-2.1,1.6-3.2,1.6c-7.2,0.1-14.5,0.1-21.7,0.1c-1.4,0-2.6-0.4-3.3-1.7c-0.7-1.4-0.2-2.6,0.8-3.8
				c2.4-2.9,4.8-5.9,7.2-8.8c0.7-0.8,0.8-1.4,0.1-2.3c-3.7-4.4-7.2-8.8-10.9-13.3c-0.1-0.1-0.3-0.2-0.9-0.5c0,1,0,1.8,0,2.6
				c0,6.6,0,13.2,0,19.8c0,5-2.9,8.2-7.5,8.2c0,0,0,0,0,0c-4.5,0-7.5-3.4-7.6-8.3c0-14.6,0-29.2,0-43.8c0-3.8,1.9-6.5,5-7.5
				c3.5-1.1,6.6-0.1,9,2.9c5.8,7.2,11.6,14.4,17.4,21.5c0.3,0.4,0.7,0.8,1.5,1.6c0.3-0.6,0.5-1.1,0.9-1.5c6-7.3,12.1-14.5,18.1-21.8
				c2.4-3,5.5-3.9,9-2.7c3,1.1,4.8,3.9,4.8,7.5C167.6,130.6,167.6,138.7,167.6,146.8z"/>
			<path class="st0" d="M159.9,174.6v2.4c-12,0-23.9,0-35.9,0v-2.8c7.2,0,14.5,0.1,21.7-0.1c1.1,0,2.8-0.8,3.2-1.6
				c0.4-0.9,0-2.5-0.7-3.5c-1.4-2.1-3.2-4-4.8-5.9c-3.5-4.2-3.5-4.2-0.1-8.5c2.9-3.6,5.8-7.1,9.1-11.2c0.1,1.2,0.2,1.7,0.2,2.3
				c0,7.2,0,14.5,0,21.7c0,4,3.3,7.2,7.2,7.3C159.8,174.6,159.9,174.6,159.9,174.6z"/>
			<path class="st1" d="M150.9,92.3c2.4,0.8,3.3,3.2,2.5,5.9c-2.6,8.5-11.8,14.2-21.6,11.9c-8.4-2-14.1-9.7-14.1-18
				c0-0.9,0.1-1.9,0.2-2.8c1.2-7.6,8.5-15.5,17.8-15.1c0.8,0,1.5,0,2.3,0c0.9,0,1.9,0,2.9,0c0.6,0,1.1,0,1.7,0
				c1.8,0.1,2.3,0.9,1.3,2.4c-2.3,3.5-4.9,6.4-9.7,6.7c-4.6,0.3-7.8,4.8-7.5,9.3c0.4,5.2,4.1,8.9,9,9c4.7,0,7.7-2,9.5-6.4
				C146.2,92.5,148.4,91.4,150.9,92.3z"/>
			<path class="st0" d="M140.8,72.1v2.1c-1,0-1.9,0-2.9,0c-0.8,0-1.5,0-2.3,0c-9.3-0.4-16.5,7.5-17.8,15.1c-0.2,0.9-0.2,1.9-0.2,2.8
				h-2.4c0-4.3,0-8.6,0-12.9c0-2.9-1.8-4.9-4.4-4.9v-2.1C120.9,72.1,130.9,72.1,140.8,72.1z"/>
			<path class="st0" d="M128.9,157.7c0.7,0.9,0.6,1.5-0.1,2.3c-2.4,2.9-4.8,5.9-7.2,8.8c-1,1.1-1.5,2.3-0.8,3.8
				c0.7,1.3,1.8,1.7,3.3,1.7v2.8c-4.8,0-9.6,0-14.4,0v-2.4c4.6,0,7.5-3.2,7.5-8.2c0-6.6,0-13.2,0-19.8c0-0.8,0-1.6,0-2.6
				c0.5,0.3,0.8,0.3,0.9,0.5C121.6,148.8,125.2,153.3,128.9,157.7z"/>
			<path class="st1" d="M115.3,92.1c0,4.3,0,8.7,0,13c0,2.9-1.8,4.9-4.4,4.9c-2.7,0-4.6-2-4.6-4.9c0-4.2,0-8.5,0-12.7
				c0-4.4,0-8.8,0-13.3c0-3,1.9-4.9,4.6-4.9c2.6,0,4.4,2,4.4,4.9C115.3,83.4,115.3,87.7,115.3,92.1
				C115.3,92.1,115.3,92.1,115.3,92.1z"/>
			<path class="st0" d="M110.9,72.1v2.1c-2.7,0-4.6,1.9-4.6,4.9c0,4.4,0,8.8,0,13.3h-2.4c0-1.3-0.1-2.7-0.3-4
				c-1-6.1-4.1-10.8-10.1-13c-3-1.1-6-1.4-9.1-1.4v-2C93.2,72.1,102.1,72.1,110.9,72.1z"/>
			<path class="st1" d="M103.6,88.4c0.2,1.3,0.3,2.7,0.3,4c0,2.5-0.4,5-1.3,7.4c-2.4,6.2-8.1,10.2-14.8,10.3c-1.6,0-3.2,0-4.8,0
				c-1.9,0-3.8,0-5.8,0c-2.5,0-4.2-1.6-4.2-4.1c0-4.5,0-9.1,0-13.6c0-4.7,0-9.3,0-14c0-2,1.1-3.8,3-3.9c2.8-0.1,5.5-0.4,8.3-0.4
				c3.1,0,6.1,0.3,9.1,1.4C99.5,77.6,102.5,82.3,103.6,88.4z M93.4,97.9c1.8-3.6,1.8-7.4,0.2-11.2c-1.7-4.1-5.4-4.1-9-4.4
				c-1.6-0.1-2.4,0.4-2.3,2.2c0.1,2.5,0,4.9,0,7.4c0,2.7,0,5.4,0,8c0,0.6,0.4,1.4,0.8,1.6C86.4,103.1,91.9,101.1,93.4,97.9z"/>
			<path class="st1" d="M97.3,123.1c0,14.7,0,29.3,0,44c0,4.3-3.4,7.7-7.5,7.7c0,0,0,0,0,0c-4.2,0-7.5-3.3-7.5-7.7
				c-0.1-7.2,0-14.3,0-21.5c0-0.6,0.1-1.3-0.1-1.9c-0.1-0.5-0.4-1.3-0.7-1.3c-0.5-0.1-1.3,0.2-1.6,0.6c-1.5,2.1-2.9,4.3-4.2,6.6
				c-0.2,0.4,0,1.3,0.3,1.8c1.3,2,2.8,3.9,4.1,5.9c0.5,0.8,0.8,2.1,0.5,2.8c-0.3,0.7-1.7,1.1-2.6,1.2c-2.9,0.1-5.8-0.1-8.7,0.1
				c-1,0.1-2.2,0.7-2.8,1.5c-2.1,2.6-3.9,5.5-5.9,8.2c-1.7,2.4-3.9,3.7-6.2,3.7c-1.4,0-2.8-0.5-4.1-1.4c-3.8-2.7-4.4-7.1-1.7-10.9
				c1.9-2.6,3.8-5.3,5.6-7.9c2.1-3,2.1-3.3-1-5.9c-0.7,0.9-1.4,1.8-2,2.8c-4.5,6.4-8.9,12.8-13.4,19.1c-2,2.9-3.7,4.1-6.1,4.1
				c-1.1,0-2.4-0.3-4-0.7c-13.9-4.2-21.9-16.7-21.9-29.6c0-7.4,2.6-14.8,8.3-20.9c10.1-10.9,26.3-13.1,38.8-5.3
				c4.5,2.8,5.8,7.2,3.2,11c-2.4,3.5-6.7,4.3-10.3,1.9c-6-4-14.2-3.7-19.4,0.8c-4.9,4.2-6.9,9.5-5.5,15.9c1.3,5.8,4.8,9.8,10.4,11.9
				c0.2,0.1,0.4,0.2,0.6,0.2c5.7,1.6,6.5,1.1,6.5-4.8c0-3.4,0-6.8,0-10.1c0-3.3,1.9-5.3,5.2-5.3c6.3,0,12.7-0.1,19,0
				c1.6,0,2.5-0.6,3.4-1.8c5.4-6.9,11-13.8,16.4-20.7c2.3-3,6.5-3.3,9.6-2.2C95.2,116.3,97.3,119.5,97.3,123.1z"/>
			<path class="st0" d="M93.5,86.8c1.6,3.7,1.6,7.5-0.2,11.2c-1.5,3.2-7,5.1-10.3,3.7c-0.4-0.2-0.8-1.1-0.8-1.6c-0.1-2.7,0-5.4,0-8
				c0-2.5,0.1-5,0-7.4c-0.1-1.8,0.7-2.3,2.3-2.2C88.1,82.7,91.8,82.7,93.5,86.8z"/>
			<path class="st0" d="M89.8,174.8v2.2c-11.8,0-23.5,0-35.3,0v-2.1c2.3,0,4.5-1.2,6.2-3.7c1.9-2.8,3.8-5.6,5.9-8.2
				c0.6-0.8,1.8-1.4,2.8-1.5c2.9-0.2,5.8,0,8.7-0.1c0.9,0,2.2-0.5,2.6-1.2c0.3-0.7,0-2-0.5-2.8c-1.3-2.1-2.8-3.9-4.1-5.9
				c-0.3-0.5-0.6-1.4-0.3-1.8c1.3-2.3,2.7-4.5,4.2-6.6c0.3-0.4,1.1-0.7,1.6-0.6c0.3,0,0.6,0.9,0.7,1.3c0.1,0.6,0.1,1.2,0.1,1.9
				c0,7.2,0,14.3,0,21.5C82.3,171.6,85.6,174.8,89.8,174.8C89.8,174.8,89.8,174.8,89.8,174.8z"/>
			<path class="st0" d="M84.4,72.1v2c-2.8,0-5.5,0.2-8.3,0.4c-1.9,0.1-3,1.8-3,3.9c0,4.7,0,9.4,0,14l-2.5,0c0-1.6-0.2-3.3-0.6-5
				c-1.8-7.6-7.5-12.7-14.8-13.1c-2.2-0.1-4.4-0.1-6.6-0.1v-2.1C60.6,72.1,72.5,72.1,84.4,72.1z"/>
			<path class="st1" d="M70,87.4c0.4,1.7,0.6,3.3,0.6,5c0,6.8-3.2,12.9-8.9,15.8c-2,1-4.4,1.6-6.7,1.8c-3.6,0.3-7.3,0.1-10.9,0.1
				c-2.9,0-4.3-1.4-4.4-4.3c0-4.6,0-9.2,0-13.8c0-4.4,0-8.8,0-13.2c0-3,1.4-4.4,4.4-4.5c1.5,0,3,0,4.6,0c2.2,0,4.4,0,6.6,0.1
				C62.5,74.7,68.3,79.8,70,87.4z M59.6,98.7c2.5-3.5,2.1-10.8-0.7-14c-2.2-2.4-5.2-2.1-8.1-2.3c-1.5-0.1-1.9,0.5-1.9,1.9
				c0.1,2.6,0,5.2,0,7.8c0,2.6,0,5.2,0,7.8c0,0.6,0.3,1.5,0.7,1.7C52.3,102.9,57.8,101.2,59.6,98.7z"/>
			<path class="st0" d="M58.8,84.8c2.9,3.2,3.2,10.5,0.7,14c-1.8,2.5-7.3,4.2-9.9,3c-0.4-0.2-0.7-1.1-0.7-1.7c-0.1-2.6,0-5.2,0-7.8
				c0-2.6,0.1-5.2,0-7.8c0-1.4,0.4-2.1,1.9-1.9C53.6,82.7,56.6,82.3,58.8,84.8z"/>
			<path class="st0" d="M53.3,148.8c3.1,2.7,3.1,2.9,1,5.9c-1.9,2.6-3.7,5.3-5.6,7.9c-2.7,3.8-2,8.1,1.7,10.9
				c1.3,0.9,2.8,1.4,4.1,1.4v2.1c-7.6,0-15.1,0-22.7,0v-2.2c2.4,0,4.1-1.2,6.1-4.1c4.5-6.4,8.9-12.8,13.4-19.1
				C51.9,150.6,52.6,149.7,53.3,148.8z"/>
			<path class="st1" d="M35.9,79.3c0,8.8,0,17.5-0.1,26.2c0,2.7-1.9,4.5-4.4,4.6c-2.5,0-4.6-1.9-4.6-4.6c-0.1-4.3,0-8.5,0-12.8
				c0-0.5-0.1-1-0.2-1.5c-0.2-0.1-0.5-0.2-0.7-0.2c-0.9,1.4-1.9,2.7-2.8,4.2c-0.2,0.3,0.1,1.1,0.4,1.5c0.7,1,1.5,2,2.2,3
				c1,1.5,0.6,2.4-1.2,2.5c-1.5,0.1-3.1-0.1-4.5,0.1c-0.9,0.1-1.9,0.6-2.5,1.3c-1.2,1.4-2.1,3-3.3,4.5c-1.9,2.4-4.2,2.8-6.4,1.1
				c-1.2-0.9-1.9-2.1-1.9-3.3c0-1,0.4-2.1,1.2-3.2c1.2-1.6,2.4-3.2,3.4-4.9c0.4-0.6,0.3-1.7,0-2.3c-0.6-1.2-1.6-2.2-2.4-3.4
				c-1.2-1.8-0.8-2.6,1.3-2.8c1.7-0.1,3.4-0.1,5.2,0c1.4,0.1,2.2-0.4,3.1-1.5c3-3.9,6.1-7.8,9.3-11.6c1.1-1.3,2.5-2,3.9-2
				c0.6,0,1.2,0.1,1.8,0.4C34.8,75.3,35.9,77,35.9,79.3z"/>
			<path class="st0" d="M31.8,174.8v2.2c-8.8,0-17.6,0-26.4,0c0-10.8,0-21.6,0-32.5h0.5c0,12.9,8,25.4,21.9,29.6
				C29.4,174.6,30.6,174.8,31.8,174.8z"/>
			<path class="st0" d="M30.9,72.1v2c-1.4,0-2.8,0.7-3.9,2c-3.2,3.8-6.3,7.7-9.3,11.6c-0.9,1.1-1.7,1.6-3.1,1.5
				c-1.7-0.1-3.4-0.1-5.2,0c-2.1,0.2-2.5,1-1.3,2.8c0.8,1.1,1.7,2.2,2.4,3.4c0.3,0.6,0.4,1.7,0,2.3c-1,1.7-2.3,3.3-3.4,4.9
				c-0.8,1.1-1.2,2.2-1.2,3.2H5.4c0-11.2,0-22.4,0-33.7C13.9,72.1,22.4,72.1,30.9,72.1z"/>
		</g>
		<g>
		</g>
	</g>
</g>
</svg>
